<svg id="visual" viewBox="0 0 900 600" width="900" height="600" xmlns="http://www.w3.org/2000/svg" xmlns:xlink="http://www.w3.org/1999/xlink" version="1.1"><rect x="0" y="0" width="900" height="600" fill="#140021"></rect><path d="M0 290L129 290L129 382L257 382L257 309L386 309L386 248L514 248L514 270L643 270L643 347L771 347L771 306L900 306L900 269L900 601L900 601L771 601L771 601L643 601L643 601L514 601L514 601L386 601L386 601L257 601L257 601L129 601L129 601L0 601Z" fill="#9900ff"></path><path d="M0 444L129 444L129 432L257 432L257 432L386 432L386 412L514 412L514 397L643 397L643 347L771 347L771 447L900 447L900 415L900 601L900 601L771 601L771 601L643 601L643 601L514 601L514 601L386 601L386 601L257 601L257 601L129 601L129 601L0 601Z" fill="#7700c6"></path><path d="M0 444L129 444L129 444L257 444L257 487L386 487L386 523L514 523L514 453L643 453L643 535L771 535L771 498L900 498L900 519L900 601L900 601L771 601L771 601L643 601L643 601L514 601L514 601L386 601L386 601L257 601L257 601L129 601L129 601L0 601Z" fill="#560090"></path></svg>