<svg id="visual" viewBox="0 0 900 600" width="900" height="600" xmlns="http://www.w3.org/2000/svg" xmlns:xlink="http://www.w3.org/1999/xlink" version="1.1"><path d="M0 85L82 85L82 103L164 103L164 49L245 49L245 85L327 85L327 61L409 61L409 43L491 43L491 79L573 79L573 85L655 85L655 61L736 61L736 109L818 109L818 115L900 115L900 67L900 0L900 0L818 0L818 0L736 0L736 0L655 0L655 0L573 0L573 0L491 0L491 0L409 0L409 0L327 0L327 0L245 0L245 0L164 0L164 0L82 0L82 0L0 0Z" fill="#fa7268"></path><path d="M0 295L82 295L82 253L164 253L164 181L245 181L245 295L327 295L327 313L409 313L409 211L491 211L491 259L573 259L573 217L655 217L655 235L736 235L736 205L818 205L818 277L900 277L900 241L900 65L900 113L818 113L818 107L736 107L736 59L655 59L655 83L573 83L573 77L491 77L491 41L409 41L409 59L327 59L327 83L245 83L245 47L164 47L164 101L82 101L82 83L0 83Z" fill="#ea5e66"></path><path d="M0 349L82 349L82 379L164 379L164 277L245 277L245 439L327 439L327 397L409 397L409 349L491 349L491 319L573 319L573 307L655 307L655 325L736 325L736 343L818 343L818 343L900 343L900 307L900 239L900 275L818 275L818 203L736 203L736 233L655 233L655 215L573 215L573 257L491 257L491 209L409 209L409 311L327 311L327 293L245 293L245 179L164 179L164 251L82 251L82 293L0 293Z" fill="#d84a64"></path><path d="M0 535L82 535L82 499L164 499L164 541L245 541L245 559L327 559L327 511L409 511L409 559L491 559L491 511L573 511L573 565L655 565L655 559L736 559L736 511L818 511L818 547L900 547L900 517L900 305L900 341L818 341L818 341L736 341L736 323L655 323L655 305L573 305L573 317L491 317L491 347L409 347L409 395L327 395L327 437L245 437L245 275L164 275L164 377L82 377L82 347L0 347Z" fill="#c53762"></path><path d="M0 601L82 601L82 601L164 601L164 601L245 601L245 601L327 601L327 601L409 601L409 601L491 601L491 601L573 601L573 601L655 601L655 601L736 601L736 601L818 601L818 601L900 601L900 601L900 515L900 545L818 545L818 509L736 509L736 557L655 557L655 563L573 563L573 509L491 509L491 557L409 557L409 509L327 509L327 557L245 557L245 539L164 539L164 497L82 497L82 533L0 533Z" fill="#b0235f"></path></svg>